<?xml version="1.0" encoding="utf-8"?>
<!-- Generator: Adobe Illustrator 16.0.0, SVG Export Plug-In . SVG Version: 6.00 Build 0)  -->
<!DOCTYPE svg PUBLIC "-//W3C//DTD SVG 1.0//EN" "http://www.w3.org/TR/2001/REC-SVG-20010904/DTD/svg10.dtd">
<svg version="1.0" id="Layer_1" xmlns="http://www.w3.org/2000/svg" xmlns:xlink="http://www.w3.org/1999/xlink" x="0px" y="0px"
	 width="40px" height="40px" viewBox="0 0 40 40" enable-background="new 0 0 40 40" xml:space="preserve">
<g>
	<path fill="#F8C92B" d="M10.168,5.74c0,1.881-1.523,3.406-3.406,3.406c-1.879,0-3.407-1.525-3.407-3.406
		c0-1.881,1.527-3.406,3.407-3.406C8.645,2.333,10.168,3.859,10.168,5.74z"/>
	<path fill="#F8C92B" d="M35.716,5.74c0,1.881-1.526,3.406-3.406,3.406c-1.883,0-3.406-1.525-3.406-3.406
		c0-1.881,1.523-3.406,3.406-3.406C34.189,2.333,35.716,3.859,35.716,5.74z"/>
	<rect x="6.762" y="2.333" fill="#F8C92B" width="25.547" height="3.606"/>
	<rect x="6.762" y="35.393" fill="#F8C92B" width="25.547" height="3.607"/>
	<g>
		<rect x="11.17" y="8.125" fill="#F8C92B" width="3.605" height="25.083"/>
		<rect x="17.733" y="8.125" fill="#F8C92B" width="3.605" height="25.083"/>
		<rect x="24.293" y="8.125" fill="#F8C92B" width="3.608" height="25.083"/>
	</g>
</g>
</svg>
