<?xml version="1.0" encoding="utf-8"?>
<!-- Generator: Adobe Illustrator 16.0.0, SVG Export Plug-In . SVG Version: 6.00 Build 0)  -->
<!DOCTYPE svg PUBLIC "-//W3C//DTD SVG 1.0//EN" "http://www.w3.org/TR/2001/REC-SVG-20010904/DTD/svg10.dtd">
<svg version="1.0" id="Layer_1" xmlns="http://www.w3.org/2000/svg" xmlns:xlink="http://www.w3.org/1999/xlink" x="0px" y="0px"
	 width="40px" height="40px" viewBox="940 480 40 40" enable-background="new 940 480 40 40" xml:space="preserve">
<path fill="#F8C92B" d="M960,518.08c0-0.012-14.793-6.575-14.793-26.299L960,481.919l14.793,9.862
	C974.793,511.505,960,518.08,960,518.08z M960,493.425c-0.003,0-0.007,0-0.01,0c-1.81,0-3.278,1.468-3.278,3.277
	c0,1.261,0.712,2.355,1.757,2.905l-1.746,5.312h6.563l-1.764-5.306c1.061-0.557,1.772-1.65,1.772-2.911
	c0-1.81-1.468-3.277-3.278-3.277C960.011,493.425,960.005,493.425,960,493.425z"/>
</svg>
