<?xml version="1.0" encoding="utf-8"?>
<!-- Generator: Adobe Illustrator 16.0.0, SVG Export Plug-In . SVG Version: 6.00 Build 0)  -->
<!DOCTYPE svg PUBLIC "-//W3C//DTD SVG 1.0//EN" "http://www.w3.org/TR/2001/REC-SVG-20010904/DTD/svg10.dtd">
<svg version="1.0" id="Layer_1" xmlns="http://www.w3.org/2000/svg" xmlns:xlink="http://www.w3.org/1999/xlink" x="0px" y="0px"
	 width="40px" height="40px" viewBox="940 480 40 40" enable-background="new 940 480 40 40" xml:space="preserve">
<circle fill="#F8C92B" cx="951.053" cy="489.649" r="4.649"/>
<path fill="#F8C92B" d="M979.254,494.649c0.658-0.658,0.658-1.58,0-2.237c-0.658-0.658-1.579-0.658-2.238,0l-4.121,4.123h-7.632
	l-4.123-4.123c-0.657-0.658-1.578-0.658-2.236,0l-4.167,4.123h-7.631l-4.123-4.123c-0.657-0.658-1.578-0.658-2.236,0
	c-0.658,0.657-0.658,1.579,0,2.237l5.921,5.921v5.833v4.254v2.763c0,0.834,0.746,1.579,1.579,1.579c0.833,0,1.58-0.745,1.58-1.579
	v-2.763v-2.018c0-0.658,0.438-1.053,1.052-1.053c0.657,0,1.053,0.438,1.053,1.053v2.018v2.763c0,0.834,0.746,1.579,1.579,1.579
	c0.833,0,1.579-0.745,1.579-1.579v-2.763v-4.342v-5.833l4.868-4.649l4.869,4.737l-3.202,9.867h3.202v2.982
	c0,0.834,0.745,1.579,1.579,1.579c0.833,0,1.578-0.745,1.578-1.579v-2.982h2.105v2.982c0,0.834,0.745,1.579,1.579,1.579
	s1.579-0.745,1.579-1.579v-2.982h3.202l-3.202-9.867L979.254,494.649z"/>
<circle fill="#F8C92B" cx="969.078" cy="489.649" r="4.649"/>
</svg>
