<?xml version="1.0" encoding="utf-8"?>
<!-- Generator: Adobe Illustrator 16.0.0, SVG Export Plug-In . SVG Version: 6.00 Build 0)  -->
<!DOCTYPE svg PUBLIC "-//W3C//DTD SVG 1.0//EN" "http://www.w3.org/TR/2001/REC-SVG-20010904/DTD/svg10.dtd">
<svg version="1.0" id="Layer_1" xmlns="http://www.w3.org/2000/svg" xmlns:xlink="http://www.w3.org/1999/xlink" x="0px" y="0px"
	 width="40px" height="40px" viewBox="940 480 40 40" enable-background="new 940 480 40 40" xml:space="preserve">
<path fill="#F8C92B" d="M965.249,497.239h3.279l-5.401-3.922v-4.922h-3.215v2.587l-5.466-3.968l-14.082,10.224h3.279v13.19h-2.123
	v2.557h25.851v-2.557h-2.122V497.239L965.249,497.239z M952.516,504.248h-3.858v-3.859h3.858V504.248z M960.233,510.55h-3.858
	v-7.717h3.858V510.55z"/>
<polygon fill="#F8C92B" points="979.637,510.916 977.558,501.069 975.698,510.916 977.282,510.916 977.282,512.985 978.054,512.985 
	978.054,510.916 "/>
<path fill="#F8C92B" d="M974.621,508.392c0-1.47-1.191-2.661-2.661-2.661s-2.661,1.191-2.661,2.661c0,1.338,0.989,2.441,2.275,2.629
	v1.964h0.771v-1.964C973.632,510.833,974.621,509.729,974.621,508.392z"/>
</svg>
