<?xml version="1.0" encoding="utf-8"?>
<!-- Generator: Adobe Illustrator 16.0.0, SVG Export Plug-In . SVG Version: 6.00 Build 0)  -->
<!DOCTYPE svg PUBLIC "-//W3C//DTD SVG 1.0//EN" "http://www.w3.org/TR/2001/REC-SVG-20010904/DTD/svg10.dtd">
<svg version="1.0" id="Layer_1" xmlns="http://www.w3.org/2000/svg" xmlns:xlink="http://www.w3.org/1999/xlink" x="0px" y="0px"
	 width="40px" height="40px" viewBox="940 480 40 40" enable-background="new 940 480 40 40" xml:space="preserve">
<g>
	<path fill="#F8C92B" d="M957.51,497.797c-0.427,0.417-1.098,0.908-1.987,1.01c-0.111,0.013-0.222,0.019-0.333,0.019
		c-0.917,0-1.831-0.431-2.717-1.288l0.858-0.89c0.717,0.69,1.403,1.007,2.052,0.93c0.968-0.11,1.607-1.055,1.614-1.064l0.377,0.246
		c-0.278-2.33-0.395-4.921-0.325-7.787c-1.68-0.669-3.523-0.192-5.199,2.045c0,0-1.512,1.48-2.549,1.72
		c-0.691,0.161-2.099,0.437-2.809,0.42c-2.162-0.055-8.333-0.483-5.595,8.969c2.169,7.486,9.256,15.872,15.925,13.348
		c2.72-1.029,4.676-3.55,5.728-6.344C960.028,506.98,958.295,503.165,957.51,497.797z M947.666,501.481
		c-0.571,0.346-1.184,0.445-1.705,0.445c-0.702,0-1.236-0.184-1.274-0.196l0.408-1.168c0.01,0.005,1.102,0.367,1.938-0.144
		c0.552-0.336,0.904-1.004,1.048-1.982l1.224,0.18C949.104,499.981,948.552,500.944,947.666,501.481z M959.475,507.729
		c-0.521-0.478-1.895-0.594-2.482-0.645c-1.011-0.084-1.627-0.117-2.557,0.198c-0.973,0.331-1.714,0.677-2.404,1.376
		c-0.557,0.565-1.222,1.631-1.246,2.156l-1.236-0.056c0.047-1.063,1.098-2.46,1.6-2.969c0.858-0.87,1.774-1.301,2.887-1.679
		c1.138-0.387,1.916-0.356,3.059-0.259c0.833,0.069,2.383,0.2,3.216,0.965L959.475,507.729z"/>
	<g>
		<path fill="#F8C92B" d="M968.297,509.554c-2.156,0-4.005-0.783-5.493-2.328c-3.119-3.237-4.591-9.641-4.257-18.516
			c0.136-3.608,1.503-4.025,2.521-4.025c1.209,0,2.664,0.671,3.727,1.16c0.401,0.186,0.75,0.346,1.045,0.454
			c0.916,0.337,2.863,0.535,2.945,0.543c0.078,0.008,0.159,0.012,0.243,0.012c1.188,0,2.866-0.787,3.053-0.877l0.043-0.02
			l0.039-0.027c1.121-0.767,2.127-1.155,2.988-1.155c3.044,0,3.928,5.042,3.998,6.809c0.245,6.235-1.375,11.862-4.337,15.051
			c-1.722,1.852-3.811,2.833-6.206,2.914C968.503,509.553,968.4,509.554,968.297,509.554
			C968.298,509.554,968.298,509.554,968.297,509.554z M962.467,500.901l0.225,0.577c0.492,1.259,2.167,2.319,2.771,2.623
			c1.197,0.601,2.285,0.724,3.549,0.724c1.318,0,2.133-0.312,3.228-0.791c0.832-0.365,2.381-1.043,3.025-2.22l0.297-0.542
			l-2.17-1.188l-0.296,0.542c-0.159,0.291-0.781,0.675-1.85,1.143c-0.877,0.383-1.375,0.583-2.233,0.583
			c-0.963,0-1.67-0.076-2.441-0.462c-0.681-0.343-1.479-1.068-1.574-1.312l-0.226-0.576L962.467,500.901z M963.844,494.503
			c0.081,0,0.162,0.008,0.237,0.025c0.445,0.097,0.855,0.507,1.222,1.219l0.283,0.549l2.201-1.13l-0.282-0.551
			c-0.721-1.399-1.695-2.243-2.896-2.505c-0.247-0.054-0.504-0.081-0.762-0.081c-1.429,0-2.529,0.828-2.65,0.923l-0.487,0.382
			l1.533,1.95l0.488-0.39C962.729,494.896,963.265,494.503,963.844,494.503z M973.401,492.032c-0.256,0-0.51,0.026-0.757,0.08
			c-1.203,0.263-2.177,1.106-2.897,2.506l-0.282,0.55l2.2,1.13l0.283-0.55c0.365-0.709,0.774-1.12,1.217-1.218
			c0.076-0.017,0.159-0.026,0.244-0.026c0.583,0,1.127,0.401,1.131,0.405l0.485,0.362l1.517-1.937l-0.487-0.381
			C975.936,492.859,974.837,492.032,973.401,492.032z"/>
		<path fill="#F8C92B" d="M961.067,484.066v1.237c1.072,0,2.457,0.638,3.468,1.104c0.415,0.191,0.772,0.356,1.091,0.473
			c0.972,0.358,2.882,0.557,3.098,0.579c0.097,0.01,0.199,0.014,0.304,0.014c1.297,0,2.992-0.779,3.32-0.937l0.085-0.041
			l0.078-0.053c1.018-0.695,1.904-1.047,2.641-1.047c2.576,0,3.331,4.981,3.38,6.214c0.24,6.076-1.319,11.535-4.173,14.606
			c-1.605,1.728-3.547,2.642-5.771,2.717c-0.098,0.003-0.193,0.006-0.289,0.006c-1.982,0-3.681-0.72-5.047-2.139
			c-3-3.114-4.413-9.361-4.085-18.064c0.128-3.43,1.372-3.43,1.902-3.43V484.066 M962.141,496.157l0.951-0.762
			c0.114-0.079,0.455-0.273,0.752-0.273c0.037,0,0.073,0.003,0.104,0.01c0.246,0.053,0.539,0.38,0.805,0.897l0.566,1.101
			l1.099-0.565l1.1-0.565l1.102-0.565l-0.567-1.101c-0.808-1.572-1.923-2.523-3.312-2.826c-0.291-0.064-0.593-0.095-0.894-0.095
			c-1.604,0-2.808,0.877-3.031,1.053l-0.977,0.765l0.767,0.974l0.764,0.973L962.141,496.157 M971.933,497.13l0.565-1.099
			c0.265-0.517,0.557-0.843,0.801-0.897c0.034-0.008,0.069-0.011,0.11-0.011c0.306,0,0.663,0.209,0.771,0.289l0.966,0.708
			l0.738-0.944l0.764-0.974l0.762-0.975l-0.975-0.762c-0.139-0.107-1.393-1.052-3.035-1.052c-0.299,0-0.598,0.031-0.89,0.094
			c-1.391,0.304-2.506,1.255-3.312,2.827l-0.567,1.101l1.102,0.565l1.101,0.565L971.933,497.13 M969.013,505.443
			c1.435,0,2.345-0.349,3.475-0.842c0.9-0.395,2.575-1.129,3.321-2.489l0.593-1.085l-1.085-0.594l-1.085-0.595l-1.07-0.617
			l-0.595,1.085c-0.068,0.093-0.359,0.365-1.565,0.894c-0.901,0.394-1.282,0.531-1.988,0.531c-0.869,0-1.502-0.064-2.163-0.397
			c-0.514-0.257-1.144-0.797-1.292-1.02l-0.436-1.115l-1.152,0.451l-1.152,0.451l-1.151,0.45l0.45,1.151
			c0.679,1.735,3.048,2.938,3.07,2.951C966.57,505.347,967.844,505.443,969.013,505.443 M961.067,484.066
			c-1.627,0-3.003,1.022-3.138,4.62c-0.526,14.002,3.447,21.485,10.368,21.485c0.11,0,0.219-0.001,0.331-0.006
			c7.549-0.254,11.52-8.952,11.139-18.606c-0.067-1.727-0.982-7.403-4.616-7.403c-0.926,0-2.026,0.369-3.337,1.263
			c0,0-1.704,0.815-2.786,0.815c-0.062,0-0.123-0.002-0.182-0.008c-0.705-0.07-2.126-0.263-2.793-0.508
			C964.986,485.326,962.873,484.066,961.067,484.066L961.067,484.066z M962.342,494.412l-0.765-0.972
			c0.048-0.038,1.023-0.791,2.27-0.791c0.204,0,0.413,0.02,0.631,0.066c1.012,0.221,1.844,0.957,2.477,2.184l-1.101,0.565
			c-0.454-0.884-1.007-1.403-1.641-1.541c-0.124-0.027-0.249-0.039-0.369-0.039C963.038,493.885,962.35,494.406,962.342,494.412
			L962.342,494.412z M971.398,495.465l-1.101-0.565c0.632-1.228,1.465-1.963,2.478-2.184c0.215-0.045,0.424-0.065,0.626-0.065
			c1.247,0,2.226,0.752,2.274,0.79l-0.763,0.974c-0.008-0.005-0.697-0.528-1.504-0.528c-0.123,0-0.25,0.012-0.378,0.04
			C972.4,494.066,971.85,494.585,971.398,495.465L971.398,495.465z M969.013,504.207c-1.176,0-2.181-0.112-3.272-0.658
			c-0.639-0.321-2.085-1.303-2.473-2.295l1.152-0.451c0.188,0.481,1.179,1.292,1.874,1.639c0.878,0.439,1.69,0.528,2.719,0.528
			c0.981,0,1.554-0.229,2.482-0.634c0.54-0.237,1.803-0.791,2.143-1.412l1.085,0.594c-0.542,0.991-1.966,1.615-2.731,1.95
			C970.939,503.928,970.214,504.207,969.013,504.207L969.013,504.207z"/>
	</g>
</g>
</svg>
