<?xml version="1.0" encoding="utf-8"?>
<!-- Generator: Adobe Illustrator 16.0.0, SVG Export Plug-In . SVG Version: 6.00 Build 0)  -->
<!DOCTYPE svg PUBLIC "-//W3C//DTD SVG 1.0//EN" "http://www.w3.org/TR/2001/REC-SVG-20010904/DTD/svg10.dtd">
<svg version="1.0"
	 id="Layer_1" xmlns:svg="http://www.w3.org/2000/svg" xmlns:inkscape="http://www.inkscape.org/namespaces/inkscape" xmlns:rdf="http://www.w3.org/1999/02/22-rdf-syntax-ns#" xmlns:dc="http://purl.org/dc/elements/1.1/" xmlns:sodipodi="http://sodipodi.sourceforge.net/DTD/sodipodi-0.dtd" xmlns:cc="http://creativecommons.org/ns#"
	 xmlns="http://www.w3.org/2000/svg" xmlns:xlink="http://www.w3.org/1999/xlink" x="0px" y="0px" width="40px" height="40px"
	 viewBox="940 480 40 40" enable-background="new 940 480 40 40" xml:space="preserve">
<g>
	<path fill="#F8C92B" d="M966.428,481.457c-2.008,1.57-3.681,3.107-3.908,5.954c-1.31,0.812-2.175,1.494-2.687,2.075
		c-0.082,0.279-0.181,0.563-0.304,0.856c1.527,1.009,2.467,1.856,2.739,2.821c0.152,0.546,0.039,1.132-0.23,1.559
		c-0.076,0.119-0.205,0.174-0.295,0.275c1.471,0.983,2.391,1.948,2.537,2.999c0.139,0.985-0.314,1.777-0.834,2.489
		c1.244,1.123,1.768,2.473,1.465,3.682c-0.287,1.145-1.213,2.011-2.418,2.467c0.079,0.245,0.154,0.501,0.223,0.761
		c1.15,0.433,2.127,1.7,3.123,1.638c0.03,5.36-0.338,5.372-0.514,8.052h3.857c-0.314-2.356-0.797-3.785-0.686-8.052
		c1.031-0.609,2.902-3.046,5.059-2.757c3.602-1.521,5.059-5.435,1.133-9.237c2.805-2.015,1.762-3.027-0.443-5.27
		c1.168-3.603-2.939-2.441-1.668-5.384C972.26,483.274,968.409,481.653,966.428,481.457z M952.603,485.34
		c-2.208-0.021-3.533,1.271-3.821,4.106c-2.024,1.205-4.165,2.319-2.947,6.071c-2.298,2.335-3.01,4.598-0.088,6.696
		c-4.089,3.96-3.037,6.362,0.713,7.946c2.245-0.301,4.195-0.365,5.269,0.269c0.115,4.443-0.387,6.118-0.715,8.571h4.019
		c-0.184-2.791-0.567-2.988-0.536-8.571c1.439,0.09,2.833,0.112,4.732,0.893c4.038-1.073,2.862-3.189,2.321-5.179
		c2.744-0.544,3.949-3.372,0.893-5.535c1.322-1.591,2.189-3.242-1.875-5.536c1.43-0.92,1.802-2.127-1.964-4.464
		c1.902-3.709-0.491-5.032-5-5.179C953.252,485.373,952.918,485.343,952.603,485.34z"/>
</g>
</svg>
