<?xml version="1.0" encoding="utf-8"?>
<!-- Generator: Adobe Illustrator 16.0.0, SVG Export Plug-In . SVG Version: 6.00 Build 0)  -->
<!DOCTYPE svg PUBLIC "-//W3C//DTD SVG 1.0//EN" "http://www.w3.org/TR/2001/REC-SVG-20010904/DTD/svg10.dtd">
<svg version="1.0" id="Layer_1" xmlns="http://www.w3.org/2000/svg" xmlns:xlink="http://www.w3.org/1999/xlink" x="0px" y="0px"
	 width="40px" height="40px" viewBox="940 480 40 40" enable-background="new 940 480 40 40" xml:space="preserve">
<path d="M893.189,9.412"/>
<g>
	<path d="M982.189,987.252"/>
</g>
<g>
	<path fill="#F8C92B" d="M960.425,490.44c-1.127,0-1.917,0.076-2.33,0.188v7.479c0.488,0.113,1.052,0.15,1.917,0.15
		c3.044,0,4.924-1.541,4.924-4.097C964.935,491.83,963.319,490.44,960.425,490.44z"/>
	<path fill="#F8C92B" d="M973.267,481.638h-26.662c-1.834,0-3.334,1.5-3.334,3.333v26.666c0,1.832,1.5,3.332,3.334,3.332h26.663
		c1.833,0,3.333-1.5,3.333-3.332V484.97C976.6,483.137,975.101,481.638,973.267,481.638z M968.279,499.987
		c-1.953,1.805-4.847,2.668-8.23,2.668c-0.752,0-1.429-0.037-1.955-0.149v9.097h-5.677v-25.523c1.764,0,4.249,0,7.744,0
		c3.533,0,6.051,0.678,7.743,2.03c1.655,1.28,2.706,3.383,2.706,5.863C970.61,496.455,969.82,498.598,968.279,499.987z"/>
</g>
</svg>
