<?xml version="1.0" encoding="utf-8"?>
<!-- Generator: Adobe Illustrator 16.0.0, SVG Export Plug-In . SVG Version: 6.00 Build 0)  -->
<!DOCTYPE svg PUBLIC "-//W3C//DTD SVG 1.0//EN" "http://www.w3.org/TR/2001/REC-SVG-20010904/DTD/svg10.dtd">
<svg version="1.0" id="Layer_1" xmlns="http://www.w3.org/2000/svg" xmlns:xlink="http://www.w3.org/1999/xlink" x="0px" y="0px"
	 width="40px" height="40px" viewBox="940 480 40 40" enable-background="new 940 480 40 40" xml:space="preserve">
<title>29 -Prayer- (Outline)</title>
<desc>Created with Sketch.</desc>
<g>
	<g transform="translate(-1080.000000, -591.000000)">
		<g transform="translate(1081.000000, 592.000000)">
			<path fill="#F8C92B" stroke="#FFFFFF" stroke-miterlimit="10" d="M958.361,510.305h-0.638c-3.893,0-6.381-2.488-6.381-6.381
				v-2.936l-4.913-5.424c-0.957-0.957-0.957-2.616,0-3.573c1.021-1.021,2.616-1.021,3.637,0l6.062,5.678
				c1.468,1.34,2.233,3.254,2.233,5.232V510.305L958.361,510.305z"/>
			<path fill="#F8C92B" stroke="#FFFFFF" stroke-miterlimit="10" d="M948.79,497.543h-3.701c-0.766,0-1.404-0.638-1.404-1.404
				v-11.996c0-0.765,0.319-1.468,0.958-1.978c0.574-0.51,1.34-0.702,2.105-0.51c1.212,0.255,2.042,1.34,2.042,2.552v8.295h-0.638
				c-0.319,0-0.638,0.127-0.83,0.383c-0.255,0.255-0.383,0.574-0.383,0.894c0,0.319,0.127,0.638,0.383,0.893l0,0l1.468,1.595
				V497.543L948.79,497.543z"/>
			<path fill="#F8C92B" stroke="#FFFFFF" stroke-miterlimit="10" d="M952.618,494.417l2.552,2.424v-7.592
				c0-0.703-0.574-1.276-1.276-1.276c-0.702,0-1.276,0.574-1.276,1.276V494.417L952.618,494.417z"/>
			<path fill="#F8C92B" stroke="#FFFFFF" stroke-width="0.25" stroke-miterlimit="10" d="M958.361,517.322h-10.847v-6.699
				c-1.404-1.021-7.657-6.061-7.657-13.718v-15.314c0-0.766,0.319-1.468,0.957-1.978c0.574-0.51,1.339-0.702,2.106-0.51
				c1.212,0.255,2.041,1.339,2.041,2.552v14.484c0,0.063,0.064,0.127,0.128,0.127h3.701l3.828,4.21v3.447
				c0,3.189,1.914,5.104,5.104,5.104h0.638V517.322L958.361,517.322z"/>
			<path fill="#F8C92B" stroke="#FFFFFF" stroke-miterlimit="10" d="M952.618,496.202l-3.445-3.253
				c-0.064-0.064-0.128-0.128-0.192-0.192s-0.128-0.064-0.191-0.127h-0.064l0,0c-0.127-0.064-0.319-0.064-0.51-0.064h-0.638v-5.87
				c0-1.403,1.148-2.552,2.552-2.552c1.403,0,2.552,1.149,2.552,2.552v9.507H952.618L952.618,496.202z"/>
			<path fill="#F8C92B" stroke="#FFFFFF" stroke-miterlimit="10" d="M960.275,510.305h-0.639v-7.402
				c0-1.979,0.829-3.892,2.233-5.232l6.062-5.743c0.957-0.957,2.616-0.957,3.573,0c1.021,1.021,1.021,2.617,0,3.637l-4.85,5.424
				v2.936C966.655,507.816,964.167,510.305,960.275,510.305z"/>
			<path fill="#F8C92B" stroke="#FFFFFF" stroke-miterlimit="10" d="M972.908,497.543h-3.7v-1.276l1.467-1.595
				c0.256-0.255,0.383-0.574,0.383-0.893c0-0.319-0.127-0.638-0.383-0.894c-0.19-0.191-0.51-0.383-0.828-0.383h-0.639v-8.295
				c0-1.276,0.829-2.361,2.042-2.616c0.765-0.127,1.531,0.064,2.105,0.511c0.638,0.574,0.957,1.276,0.957,2.042v11.996
				C974.312,496.905,973.675,497.543,972.908,497.543z"/>
			<path fill="#F8C92B" stroke="#FFFFFF" stroke-miterlimit="10" d="M961.551,499.84v-10.592c0-1.404,1.148-2.553,2.553-2.553
				s2.552,1.149,2.552,2.553v5.742l-4.02,3.765L961.551,499.84z"/>
			<path fill="#F8C92B" stroke="#FFFFFF" stroke-miterlimit="10" d="M960.913,516.047h8.295v-6.062l0.255-0.189
				c0.128-0.064,7.401-5.105,7.401-12.89v-15.314c0-0.383-0.19-0.766-0.446-0.957c-0.319-0.255-0.701-0.319-1.084-0.255
				c-0.574,0.063-1.021,0.638-1.021,1.276v14.484c0,0.766-0.638,1.404-1.404,1.404h-3.126l-3.127,3.446v2.936
				c0,3.637-2.233,6.125-5.742,6.381V516.047L960.913,516.047z"/>
			<path fill="#F8C92B" stroke="#FFFFFF" stroke-miterlimit="10" d="M965.379,496.202v-9.507c0-1.403,1.148-2.552,2.553-2.552
				s2.553,1.149,2.553,2.552v5.87h-0.638c-0.191,0-0.319,0-0.511,0.064h-0.064c-0.063,0-0.128,0.064-0.191,0.064l-0.063,0.063
				c0,0-0.128,0.064-0.191,0.127L965.379,496.202z"/>
		</g>
	</g>
</g>
<g>
	<g transform="translate(-1080.000000, -591.000000)">
		<g transform="translate(1081.000000, 592.000000)">
			<path fill="#FFFFFF" d="M958.361,510.305h-0.638c-3.893,0-6.381-2.488-6.381-6.381v-2.936l-4.913-5.424
				c-0.957-0.957-0.957-2.616,0-3.573c1.021-1.021,2.616-1.021,3.637,0l6.062,5.678c1.468,1.34,2.233,3.254,2.233,5.232V510.305
				L958.361,510.305z M948.216,492.502c-0.319,0-0.638,0.127-0.894,0.383c-0.511,0.51-0.511,1.276,0,1.787l5.296,5.805v3.447
				c0,2.998,1.659,4.85,4.467,5.104v-6.062c0-1.594-0.703-3.189-1.851-4.274l-6.062-5.742
				C948.917,492.63,948.535,492.502,948.216,492.502z"/>
			<path fill="#FFFFFF" d="M948.79,497.543h-3.701c-0.766,0-1.404-0.638-1.404-1.404v-11.996c0-0.765,0.319-1.468,0.958-1.978
				c0.574-0.51,1.34-0.702,2.105-0.51c1.212,0.255,2.042,1.34,2.042,2.552v8.295h-0.638c-0.319,0-0.638,0.127-0.83,0.383
				c-0.255,0.255-0.383,0.574-0.383,0.894c0,0.319,0.127,0.638,0.383,0.893l0,0l1.468,1.595V497.543L948.79,497.543z
				 M946.237,482.867c-0.319,0-0.574,0.127-0.829,0.319c-0.255,0.192-0.447,0.574-0.447,0.957v11.996
				c0,0.063,0.064,0.127,0.128,0.127h1.978l-0.638-0.702c-0.957-1.021-0.957-2.616,0-3.573c0.319-0.319,0.702-0.511,1.084-0.638
				v-7.146c0-0.639-0.446-1.212-1.021-1.34C946.429,482.867,946.302,482.867,946.237,482.867z"/>
			<path fill="#FFFFFF" d="M956.447,499.904l-1.212-1.278l-3.892-3.636v-5.742c0-1.404,1.148-2.553,2.552-2.553
				c1.404,0,2.553,1.149,2.553,2.553V499.904L956.447,499.904z M952.618,494.417l2.552,2.424v-7.592
				c0-0.703-0.574-1.276-1.276-1.276c-0.702,0-1.276,0.574-1.276,1.276V494.417L952.618,494.417z"/>
			<path fill="#FFFFFF" d="M958.361,517.322h-10.847v-6.699c-1.404-1.021-7.657-6.061-7.657-13.718v-15.314
				c0-0.766,0.319-1.468,0.957-1.978c0.574-0.51,1.339-0.702,2.106-0.51c1.212,0.255,2.041,1.339,2.041,2.552v14.484
				c0,0.063,0.064,0.127,0.128,0.127h3.701l3.828,4.21v3.447c0,3.189,1.914,5.104,5.104,5.104h0.638V517.322L958.361,517.322z
				 M948.79,516.047h8.295v-5.742c-3.51-0.256-5.743-2.682-5.743-6.381v-2.936l-3.126-3.445h-3.127
				c-0.766,0-1.404-0.638-1.404-1.404v-14.484c0-0.639-0.446-1.212-1.021-1.34c-0.382-0.064-0.766,0-1.084,0.255
				c-0.255,0.255-0.447,0.638-0.447,1.021v15.314c0,7.785,7.274,12.826,7.402,12.89l0.255,0.189V516.047L948.79,516.047z"/>
			<path fill="#FFFFFF" d="M952.618,496.202l-3.445-3.253c-0.064-0.064-0.128-0.128-0.192-0.192s-0.128-0.064-0.191-0.127h-0.064
				l0,0c-0.127-0.064-0.319-0.064-0.51-0.064h-0.638v-5.87c0-1.403,1.148-2.552,2.552-2.552c1.403,0,2.552,1.149,2.552,2.552v9.507
				H952.618L952.618,496.202z M949.109,491.417L949.109,491.417c0.191,0.064,0.319,0.128,0.446,0.191l0.064,0.064
				c0.128,0.127,0.319,0.191,0.447,0.319l1.34,1.212v-6.508c0-0.702-0.575-1.276-1.276-1.276s-1.276,0.574-1.276,1.276v4.594
				C948.917,491.354,948.981,491.354,949.109,491.417z"/>
			<path fill="#FFFFFF" d="M960.275,510.305h-0.639v-7.402c0-1.979,0.829-3.892,2.233-5.232l6.062-5.743
				c0.957-0.957,2.616-0.957,3.573,0c1.021,1.021,1.021,2.617,0,3.637l-4.85,5.424v2.936
				C966.655,507.816,964.167,510.305,960.275,510.305z M969.782,492.502c-0.319,0-0.639,0.127-0.894,0.383l-6.125,5.742
				c-1.213,1.084-1.851,2.68-1.851,4.276v6.125c2.808-0.254,4.466-2.105,4.466-5.104v-3.445l5.296-5.743
				c0.511-0.511,0.511-1.34,0-1.851C970.42,492.63,970.101,492.502,969.782,492.502z"/>
			<path fill="#FFFFFF" d="M972.908,497.543h-3.7v-1.276l1.467-1.595c0.256-0.255,0.383-0.574,0.383-0.893
				c0-0.319-0.127-0.638-0.383-0.894c-0.19-0.191-0.51-0.383-0.828-0.383h-0.639v-8.295c0-1.276,0.829-2.361,2.042-2.616
				c0.765-0.127,1.531,0.064,2.105,0.511c0.638,0.574,0.957,1.276,0.957,2.042v11.996
				C974.312,496.905,973.675,497.543,972.908,497.543z M970.931,496.267h1.978c0.063,0,0.128-0.064,0.128-0.127v-11.996
				c0-0.383-0.19-0.765-0.445-0.957c-0.32-0.256-0.703-0.319-1.086-0.256c-0.574,0.064-1.021,0.638-1.021,1.277v7.146
				c0.382,0.127,0.766,0.319,1.085,0.638c1.021,1.021,1.021,2.615,0,3.572L970.931,496.267z"/>
			<path fill="#FFFFFF" d="M961.551,499.84v-10.592c0-1.404,1.148-2.553,2.553-2.553s2.552,1.149,2.552,2.553v5.742l-4.02,3.765
				L961.551,499.84z M964.104,487.972c-0.702,0-1.276,0.574-1.276,1.276v7.592l2.552-2.424v-5.168
				C965.379,488.545,964.806,487.972,964.104,487.972z"/>
			<path fill="#FFFFFF" d="M970.484,517.322h-10.848v-8.295h0.639c3.189,0,5.104-1.914,5.104-5.104v-3.445l3.829-4.212h3.7
				c0.063,0,0.128-0.064,0.128-0.127v-14.484c0-1.276,0.829-2.361,2.042-2.616c0.766-0.127,1.532,0.064,2.105,0.511
				c0.639,0.574,0.957,1.276,0.957,2.042v15.314c0,7.658-6.252,12.697-7.656,13.718V517.322L970.484,517.322z M960.913,516.047
				h8.295v-6.062l0.255-0.189c0.128-0.064,7.401-5.105,7.401-12.89v-15.314c0-0.383-0.19-0.766-0.446-0.957
				c-0.319-0.255-0.701-0.319-1.084-0.255c-0.574,0.063-1.021,0.638-1.021,1.276v14.484c0,0.766-0.638,1.404-1.404,1.404h-3.126
				l-3.127,3.446v2.936c0,3.637-2.233,6.125-5.742,6.381V516.047L960.913,516.047z"/>
			<path fill="#FFFFFF" d="M965.379,496.202v-9.507c0-1.403,1.148-2.552,2.553-2.552s2.553,1.149,2.553,2.552v5.87h-0.638
				c-0.191,0-0.319,0-0.511,0.064h-0.064c-0.063,0-0.128,0.064-0.191,0.064l-0.063,0.063c0,0-0.128,0.064-0.191,0.127
				L965.379,496.202z M967.932,485.419c-0.702,0-1.276,0.574-1.276,1.276v6.508l1.341-1.212c0.126-0.128,0.255-0.192,0.383-0.319
				l0.127-0.064c0.064-0.064,0.255-0.127,0.383-0.191h0.064c0.127-0.063,0.191-0.063,0.318-0.063v-4.658
				C969.208,485.993,968.634,485.419,967.932,485.419z"/>
		</g>
	</g>
</g>
</svg>
