<?xml version="1.0" encoding="utf-8"?>
<!-- Generator: Adobe Illustrator 16.0.0, SVG Export Plug-In . SVG Version: 6.00 Build 0)  -->
<!DOCTYPE svg PUBLIC "-//W3C//DTD SVG 1.0//EN" "http://www.w3.org/TR/2001/REC-SVG-20010904/DTD/svg10.dtd">
<svg version="1.0"
	 id="Layer_1" xmlns:svg="http://www.w3.org/2000/svg" xmlns:inkscape="http://www.inkscape.org/namespaces/inkscape" xmlns:rdf="http://www.w3.org/1999/02/22-rdf-syntax-ns#" xmlns:dc="http://purl.org/dc/elements/1.1/" xmlns:sodipodi="http://sodipodi.sourceforge.net/DTD/sodipodi-0.dtd" xmlns:cc="http://creativecommons.org/ns#"
	 xmlns="http://www.w3.org/2000/svg" xmlns:xlink="http://www.w3.org/1999/xlink" x="0px" y="0px" width="40px" height="40px"
	 viewBox="940 480 40 40" enable-background="new 940 480 40 40" xml:space="preserve">
<g transform="translate(0,-952.36218)">
	<path fill="#F8C92B" d="M960,1432.363l20,13.6l-20,13.6l-20-13.6L960,1432.363z M978.604,1448.613v8.9
		c-0.285-0.218-0.601-0.35-0.93-0.35c-0.33,0-0.645,0.132-0.931,0.35v-7.625L978.604,1448.613z M972.559,1452.738v11.625
		c0,3.35-5.602,8-12.559,8s-12.558-4.65-12.558-7.999v-11.625l12.209,8.3c0.224,0.155,0.474,0.155,0.697,0L972.559,1452.738
		L972.559,1452.738z M977.675,1458.763c0.771,0,1.395,1.074,1.395,2.4c0,1.325-0.624,2.399-1.395,2.399
		c-0.771,0-1.396-1.074-1.396-2.399C976.279,1459.837,976.903,1458.763,977.675,1458.763z"/>
</g>
</svg>
