<?xml version="1.0" encoding="utf-8"?>
<!-- Generator: Adobe Illustrator 16.0.0, SVG Export Plug-In . SVG Version: 6.00 Build 0)  -->
<!DOCTYPE svg PUBLIC "-//W3C//DTD SVG 1.0//EN" "http://www.w3.org/TR/2001/REC-SVG-20010904/DTD/svg10.dtd">
<svg version="1.0" id="Layer_1" xmlns="http://www.w3.org/2000/svg" xmlns:xlink="http://www.w3.org/1999/xlink" x="0px" y="0px"
	 width="40px" height="40px" viewBox="940 480 40 40" enable-background="new 940 480 40 40" xml:space="preserve">
<path fill="#F8C92B" d="M968.542,493.058c0,2.073-1.331,3.755-2.978,3.755c-1.644,0-2.977-1.682-2.977-3.755
	c0-2.071,1.332-3.753,2.977-3.753C967.211,489.305,968.542,490.987,968.542,493.058z M956.34,490.903
	c-2.384,0-4.325-2.445-4.325-5.453c0-3.006,1.94-5.451,4.325-5.451c2.385,0,4.324,2.445,4.324,5.451
	C960.664,488.458,958.725,490.903,956.34,490.903z M956.34,481.609c-1.681,0-3.049,1.722-3.049,3.842
	c0,2.119,1.368,3.843,3.049,3.843c1.681,0,3.049-1.725,3.049-3.843C959.389,483.331,958.021,481.609,956.34,481.609z M980,514.608
	c-0.092-0.098-0.182-0.193-0.274-0.291c-2.69-2.862-6.378-6.777-10.527-5.065c-1.526,0.631-2.597,2.017-3.541,3.238
	c-0.312,0.405-0.622,0.804-0.946,1.171c-1.227,1.387-2.848,2.451-4.338,2.847c-2.66,0.71-5.393,0.023-7.307-1.832
	c-0.315-0.304-0.63-0.632-0.949-0.959c-1.767-1.827-3.77-3.888-6.553-3.606c-1.899,0.197-3.792,1.104-5.564,2.128l1.054,2.93
	c1.57-0.906,3.206-1.693,4.719-1.85c1.749-0.193,3.199,1.307,4.727,2.888c0.34,0.349,0.675,0.696,1.011,1.021
	c1.864,1.808,4.29,2.773,6.807,2.773c0.856,0,1.724-0.112,2.582-0.341c1.938-0.516,3.948-1.829,5.517-3.604
	c0.365-0.41,0.716-0.864,1.068-1.318c0.812-1.052,1.578-2.042,2.508-2.427c2.802-1.163,5.609,1.829,8.09,4.467
	c0.197,0.21,0.392,0.417,0.581,0.616L980,514.608z M951.351,488.697c0.988,0.75,1.737,1.866,2.538,2.891
	c2.101,2.692,4.749,4.667,7.444,6.259c3.107,1.837,6.545,2.544,9.956,2.607c1.378,0.027,2.755-0.042,4.133-0.03
	c1.005,0.01,3.464-0.358,3.93,1.199c0.545,1.812-1.298,2.412-2.327,2.628c-1.508,0.319-3.068,0.275-4.592,0.322
	c-1.786,0.052-3.573,0.057-5.359,0.057c-0.043,0-0.791-0.043-0.8,0c-0.094,0.452-0.22,0.895-0.331,1.34
	c-0.297,1.203-0.594,2.405-0.891,3.609c-0.097,0.395-0.174,0.845-0.384,1.167c-1.28,1.979-3.482,2.618-5.368,3.127
	c-0.677,0.182-1.384,0.24-2.073,0.138c-0.265-0.039-2.088-0.361-1.975-0.802l0.213-0.851l3.189-10.231
	c0.062-0.222-1.619-1.625-1.775-1.775c-2.286-2.196-4.489-4.593-6.093-7.634c-0.423-0.801-0.899-1.65-0.958-2.651
	C949.758,488.861,950.398,487.973,951.351,488.697z"/>
</svg>
