<?xml version="1.0" encoding="utf-8"?>
<!-- Generator: Adobe Illustrator 16.0.0, SVG Export Plug-In . SVG Version: 6.00 Build 0)  -->
<!DOCTYPE svg PUBLIC "-//W3C//DTD SVG 1.0//EN" "http://www.w3.org/TR/2001/REC-SVG-20010904/DTD/svg10.dtd">
<svg version="1.0" id="Layer_1" xmlns="http://www.w3.org/2000/svg" xmlns:xlink="http://www.w3.org/1999/xlink" x="0px" y="0px"
	 width="40px" height="40px" viewBox="940 480 40 40" enable-background="new 940 480 40 40" xml:space="preserve">
<path fill="#F8C92B" d="M945.366,483.229H940v3.168h3.082l7.565,22.694c-1.309,0.719-2.199,2.109-2.199,3.706
	c0,2.329,1.895,4.224,4.224,4.224s4.224-1.895,4.224-4.224c0-0.365-0.052-0.718-0.139-1.056h9.781
	c-0.087,0.338-0.139,0.69-0.139,1.056c0,2.329,1.896,4.224,4.225,4.224s4.224-1.895,4.224-4.224s-1.895-4.224-4.224-4.224h-16.811
	l-1.056-3.168h20.063l5.28-15.84h-30.624L945.366,483.229z M970.624,510.685c1.164,0,2.111,0.947,2.111,2.112
	c0,1.164-0.947,2.112-2.111,2.112c-1.165,0-2.112-0.948-2.112-2.112C968.512,511.632,969.459,510.685,970.624,510.685z
	 M954.784,512.797c0,1.164-0.947,2.112-2.112,2.112c-1.165,0-2.112-0.948-2.112-2.112c0-1.165,0.947-2.112,2.112-2.112
	C953.836,510.685,954.784,511.632,954.784,512.797z M960.063,502.237h-2.978l-0.704-4.224h3.682V502.237z M968.878,492.733h4.828
	l-1.056,3.168h-4.3L968.878,492.733z M967.998,498.013h3.948l-1.408,4.224h-3.244L967.998,498.013z M962.176,492.733h4.562
	l-0.528,3.168h-4.033V492.733z M962.176,498.013h3.682l-0.704,4.224h-2.978V498.013z M960.063,492.733v3.168h-4.033l-0.528-3.168
	H960.063z M954.946,502.237h-3.244l-1.408-4.224h3.948L954.946,502.237z M953.362,492.733l0.528,3.168h-4.3l-1.056-3.168H953.362z"
	/>
</svg>
