<?xml version="1.0" encoding="utf-8"?>
<!-- Generator: Adobe Illustrator 16.0.0, SVG Export Plug-In . SVG Version: 6.00 Build 0)  -->
<!DOCTYPE svg PUBLIC "-//W3C//DTD SVG 1.0//EN" "http://www.w3.org/TR/2001/REC-SVG-20010904/DTD/svg10.dtd">
<svg version="1.0" id="Layer_1" xmlns="http://www.w3.org/2000/svg" xmlns:xlink="http://www.w3.org/1999/xlink" x="0px" y="0px"
	 width="40px" height="40px" viewBox="940 480 40 40" enable-background="new 940 480 40 40" xml:space="preserve">
<path fill="#F8C92B" d="M976.61,490.185h-0.755v-3.775c0-1.246-0.912-2.721-2.026-3.278c0,0-4.014-2.007-13.829-2.007
	c-9.815,0-13.829,2.007-13.829,2.007c-1.114,0.557-2.026,2.032-2.026,3.278v3.775h-0.755c-1.246,0-2.265,1.019-2.265,2.265v2.265
	c0,1.246,1.019,2.265,2.265,2.265h0.755v15.477c0,0.981,0.633,1.819,1.51,2.132v1.267c0,1.661,1.359,3.02,3.02,3.02
	s3.02-1.358,3.02-3.02v-1.133h16.61v1.133c0,1.661,1.359,3.02,3.021,3.02s3.02-1.358,3.02-3.02v-1.267
	c0.877-0.312,1.511-1.15,1.511-2.132V496.98h0.755c1.245,0,2.265-1.02,2.265-2.265v-2.265
	C978.875,491.204,977.855,490.185,976.61,490.185z M952.45,484.9c0-0.416,0.339-0.755,0.755-0.755h13.59
	c0.415,0,0.755,0.339,0.755,0.755v1.51c0,0.415-0.34,0.755-0.755,0.755h-13.59c-0.416,0-0.755-0.34-0.755-0.755V484.9z
	 M949.053,511.702c-1.043,0-1.888-0.846-1.888-1.887c0-1.042,0.845-1.888,1.888-1.888c1.042,0,1.887,0.846,1.887,1.888
	C950.94,510.856,950.095,511.702,949.053,511.702z M970.947,511.702c-1.042,0-1.888-0.846-1.888-1.887
	c0-1.042,0.846-1.888,1.888-1.888c1.043,0,1.888,0.846,1.888,1.888C972.835,510.856,971.99,511.702,970.947,511.702z
	 M972.835,503.02c0,0.416-0.34,0.756-0.755,0.756h-24.16c-0.416,0-0.755-0.34-0.755-0.756v-12.08c0-0.416,0.339-0.755,0.755-0.755
	h24.16c0.415,0,0.755,0.339,0.755,0.755V503.02z"/>
</svg>
