<?xml version="1.0" encoding="utf-8"?>
<!-- Generator: Adobe Illustrator 16.0.0, SVG Export Plug-In . SVG Version: 6.00 Build 0)  -->
<!DOCTYPE svg PUBLIC "-//W3C//DTD SVG 1.0//EN" "http://www.w3.org/TR/2001/REC-SVG-20010904/DTD/svg10.dtd">
<svg version="1.0" id="Layer_1" xmlns="http://www.w3.org/2000/svg" xmlns:xlink="http://www.w3.org/1999/xlink" x="0px" y="0px"
	 width="40px" height="40px" viewBox="940 480 40 40" enable-background="new 940 480 40 40" xml:space="preserve">
<path fill="#F8C92B" d="M979.943,508.314c-0.693,0.277-1.385,0.555-2.216,0.555c-1.662,0-2.77-1.107-4.433-1.107
	c-1.66,0-2.769,1.107-4.431,1.107s-2.771-1.107-4.432-1.107s-2.77,1.107-4.432,1.107c-1.662,0-2.77-1.107-4.431-1.107
	c-1.662,0-2.77,1.107-4.432,1.107c-1.662,0-2.769-1.107-4.431-1.107s-2.77,1.107-4.432,1.107c-0.831,0-1.524-0.276-2.216-0.554
	v3.323c0.692,0.278,1.385,0.554,2.216,0.554c1.662,0,2.77-1.107,4.432-1.107s2.77,1.107,4.432,1.107s2.77-1.107,4.432-1.107
	s2.77,1.107,4.432,1.107s2.77-1.107,4.432-1.107c1.661,0,2.77,1.107,4.431,1.107c1.663,0,2.771-1.107,4.432-1.107
	c1.662,0,2.77,1.107,4.432,1.107c0.831,0,1.523-0.276,2.216-0.554L979.943,508.314L979.943,508.314L979.943,508.314z"/>
<path fill="#F8C92B" d="M979.943,514.963c-0.693,0.276-1.385,0.554-2.216,0.554c-1.662,0-2.77-1.108-4.433-1.108
	c-1.66,0-2.769,1.108-4.431,1.108s-2.771-1.108-4.432-1.108s-2.77,1.108-4.432,1.108c-1.662,0-2.77-1.108-4.431-1.108
	c-1.662,0-2.77,1.108-4.432,1.108c-1.662,0-2.769-1.108-4.431-1.108s-2.77,1.108-4.432,1.108c-0.831,0-1.524-0.275-2.216-0.553
	v3.323c0.692,0.276,1.385,0.554,2.216,0.554c1.662,0,2.77-1.107,4.432-1.107s2.77,1.107,4.431,1.107
	c1.662,0,2.771-1.107,4.432-1.107c1.661,0,2.769,1.106,4.431,1.106s2.77-1.107,4.432-1.107c1.661,0,2.77,1.107,4.431,1.107
	c1.663,0,2.771-1.107,4.432-1.107c1.662,0,2.77,1.107,4.432,1.107c0.831,0,1.523-0.276,2.216-0.555L979.943,514.963L979.943,514.963
	L979.943,514.963z"/>
<path fill="#F8C92B" d="M976.619,502.219v-15.511l-7.201,4.432v6.647h-2.754v-8.886h-3.341v-7.732h-8.862v12.656h-4.432v-4.347
	l-3.601-2.216l-3.6,2.216v7.755h-2.77v7.759c0.692,0.276,1.385,0.553,2.216,0.553c1.662,0,2.77-1.107,4.432-1.107
	s2.77,1.107,4.432,1.107s2.77-1.107,4.432-1.107s2.77,1.107,4.432,1.107s2.77-1.107,4.432-1.107c1.661,0,2.77,1.107,4.431,1.107
	c1.663,0,2.771-1.107,4.432-1.107c1.662,0,2.77,1.107,4.432,1.107c0.831,0,1.523-0.276,2.216-0.554v-2.772H976.619L976.619,502.219z
	"/>
<path fill="#F8C92B" d="M973.295,507.762c-1.66,0-2.769,1.107-4.431,1.107s-2.771-1.107-4.432-1.107s-2.77,1.107-4.432,1.107
	c-1.662,0-2.77-1.107-4.431-1.107c-1.662,0-2.77,1.107-4.432,1.107c-1.662,0-2.769-1.107-4.431-1.107s-2.77,1.107-4.432,1.107
	c-0.831,0-1.524-0.276-2.216-0.554v3.323c0.692,0.277,1.385,0.554,2.216,0.554c1.662,0,2.77-1.107,4.432-1.107
	s2.77,1.107,4.432,1.107s2.77-1.107,4.432-1.107s2.77,1.107,4.432,1.107s2.77-1.107,4.432-1.107c1.661,0,2.77,1.107,4.431,1.107
	c1.663,0,2.771-1.107,4.432-1.107c1.662,0,2.77,1.107,4.432,1.107c0.831,0,1.523-0.276,2.216-0.554v-3.324
	c-0.692,0.277-1.385,0.555-2.216,0.555C976.065,508.869,974.958,507.762,973.295,507.762z"/>
</svg>
