<svg fill="#207144" xmlns="http://www.w3.org/2000/svg" xmlns:xlink="http://www.w3.org/1999/xlink" version="1.1" x="0px" y="0px" viewBox="0 0 100 100" enable-background="new 0 0 100 100" xml:space="preserve"><g><path d="M54.91,65.17l2.44-4.963h4.112l-4.174,7.403l4.286,7.526h-4.153l-2.512-5.055l-2.512,5.055h-4.143l4.275-7.526   l-4.163-7.403h4.102L54.91,65.17z"></path><path d="M66.01,72.368h6.265v2.769H62.41v-14.93h3.6V72.368z"></path><path d="M81.072,71.169c0-0.526-0.186-0.937-0.559-1.23s-1.027-0.599-1.963-0.913c-0.938-0.314-1.703-0.618-2.297-0.912   c-1.936-0.95-2.902-2.256-2.902-3.917c0-0.827,0.241-1.557,0.723-2.189c0.482-0.632,1.164-1.124,2.046-1.477   c0.882-0.352,1.873-0.528,2.974-0.528c1.073,0,2.035,0.191,2.887,0.574c0.851,0.383,1.512,0.928,1.984,1.636   c0.471,0.707,0.707,1.516,0.707,2.425h-3.589c0-0.608-0.187-1.08-0.559-1.415c-0.373-0.335-0.877-0.502-1.513-0.502   c-0.643,0-1.15,0.142-1.522,0.425c-0.373,0.284-0.56,0.645-0.56,1.082c0,0.383,0.205,0.73,0.615,1.041   c0.41,0.312,1.132,0.633,2.164,0.964c1.032,0.332,1.88,0.688,2.543,1.071c1.613,0.93,2.42,2.212,2.42,3.846   c0,1.306-0.492,2.331-1.477,3.076s-2.334,1.117-4.051,1.117c-1.209,0-2.305-0.217-3.286-0.651c-0.981-0.434-1.72-1.028-2.215-1.784   c-0.495-0.755-0.743-1.625-0.743-2.609h3.609c0,0.8,0.207,1.39,0.62,1.769c0.413,0.38,1.085,0.569,2.015,0.569   c0.596,0,1.064-0.128,1.41-0.385C80.9,71.994,81.072,71.634,81.072,71.169z"></path></g><g><polygon points="70.039,5.051 70.039,20.012 85,20.012  "></polygon></g><polygon points="85,55 85,25 65,25 65,5 15,5 15,95 85,95 85,80 25,80 25,55 "></polygon></svg>