<svg fill="#C82606" xmlns="http://www.w3.org/2000/svg" xmlns:xlink="http://www.w3.org/1999/xlink" version="1.1" x="0px" y="0px" viewBox="0 0 100 100" enable-background="new 0 0 100 100" xml:space="preserve"><g><path d="M52.5,70.071v5.065h-3.599v-14.93h5.958c1.142,0,2.151,0.21,3.03,0.631c0.878,0.42,1.559,1.019,2.041,1.794   c0.481,0.776,0.723,1.656,0.723,2.641c0,1.456-0.521,2.62-1.563,3.491c-1.043,0.872-2.473,1.308-4.292,1.308H52.5z M52.5,67.293   h2.358c0.697,0,1.229-0.175,1.594-0.523s0.549-0.841,0.549-1.477c0-0.697-0.188-1.254-0.564-1.671s-0.889-0.629-1.538-0.636H52.5   V67.293z"></path><path d="M61.854,75.137v-14.93h4.809c1.319,0,2.505,0.3,3.558,0.897c1.053,0.599,1.875,1.442,2.466,2.532   c0.591,1.091,0.891,2.312,0.897,3.666v0.688c0,1.367-0.289,2.593-0.866,3.676c-0.578,1.084-1.392,1.932-2.44,2.543   c-1.05,0.612-2.22,0.921-3.512,0.928H61.854z M65.453,62.986v9.382h1.251c1.032,0,1.825-0.367,2.379-1.103   c0.554-0.734,0.831-1.826,0.831-3.275v-0.646c0-1.442-0.277-2.529-0.831-3.261s-1.36-1.097-2.42-1.097H65.453z"></path><path d="M84.436,69.189h-5.804v5.947h-3.599v-14.93h9.987v2.779h-6.388v3.435h5.804V69.189z"></path></g><g><polygon points="70.039,5.051 70.039,20.012 85,20.012  "></polygon></g><polygon points="85,55 85,25 65,25 65,5 15,5 15,95 85,95 85,80 25,80 25,55 "></polygon></svg>