<svg xmlns:dc="http://purl.org/dc/elements/1.1/" xmlns:cc="http://creativecommons.org/ns#" xmlns:rdf="http://www.w3.org/1999/02/22-rdf-syntax-ns#" xmlns:svg="http://www.w3.org/2000/svg" xmlns="http://www.w3.org/2000/svg" xmlns:sodipodi="http://sodipodi.sourceforge.net/DTD/sodipodi-0.dtd" xmlns:inkscape="http://www.inkscape.org/namespaces/inkscape" version="1.1" x="0px" y="0px" viewBox="0 0 100 100"><g transform="translate(0,-952.36218)"><path style="color:#000000;enable-background:accumulate;" d="m 18,960.36217 0,84.00003 64,0 0,-60.00001 -22,0 a 2.0002002,2.0002002 0 0 1 -2,-2.00002 l 0,-22 -40,0 z m 44,2 0,18 18,0 -18,-18 z m -12,32.00002 c 5.3449,0 10,3.8195 10,8.87501 0,5.5135 -2.6432,8.3332 -4.6562,10.1875 -2.0132,1.8543 -3.3438,2.7205 -3.3438,6.9375 0.015,1.0566 -0.9435,2.0312 -2,2.0312 -1.0566,0 -2.015,-0.9746 -2,-2.0312 0,-5.3339 2.6699,-8.0768 4.6562,-9.9062 1.9864,-1.8296 3.3438,-2.7767 3.3438,-7.2188 0,-2.5427 -2.5147,-4.87501 -6,-4.87501 -3.2197,0 -5.5919,1.4588 -6.0625,3.43751 -0.1419,1.1063 -1.3516,1.9414 -2.4375,1.6875 -1.0859,-0.2541 -1.7266,-1.6876 -1.4375,-2.5938 1.0204,-4.29041 5.4306,-6.53121 9.9375,-6.53121 z m 0.094,30.00001 c 1.6565,0 3,1.3431 3,3 0,1.6569 -1.3434,3 -3,3 -1.6567,0 -3,-1.3431 -3,-3 0,-1.6569 1.3433,-3 3,-3 z" fill="#000000" fill-opacity="1" fill-rule="nonzero" stroke="none" marker="none" visibility="visible" display="inline" overflow="visible"></path></g></svg>